<svg width="150" height="63" viewBox="0 0 150 63" fill="none" xmlns="http://www.w3.org/2000/svg">
<g clip-path="url(#clip0_505_7174)">
<path d="M144.911 59.6893C144.824 59.7517 144.705 59.8079 144.554 59.858C144.417 59.9078 144.26 59.9327 144.085 59.9327C143.884 59.9327 143.703 59.9016 143.54 59.8392C143.39 59.7765 143.284 59.6767 143.221 59.5393C142.545 58.1404 141.963 56.8601 141.475 55.6984C140.986 54.5368 140.592 53.5752 140.292 52.813H140.217C140.179 53.7501 140.135 54.6244 140.085 55.4363C140.048 56.2356 140.004 57.0224 139.954 57.7968C139.904 58.559 139.854 59.3334 139.804 60.1201C139.753 60.9072 139.703 61.7501 139.653 62.6493C139.578 62.6745 139.478 62.6994 139.353 62.7243C139.24 62.7495 139.115 62.7618 138.977 62.7618C138.702 62.7618 138.508 62.7056 138.395 62.5934C138.282 62.4809 138.226 62.3184 138.226 62.106C138.226 61.9812 138.233 61.7126 138.245 61.3005C138.27 60.8884 138.301 60.3887 138.339 59.8017C138.376 59.2145 138.414 58.5651 138.452 57.853C138.502 57.1413 138.552 56.4166 138.602 55.6797C138.664 54.9428 138.721 54.2184 138.771 53.5064C138.833 52.7943 138.89 52.1449 138.94 51.558C139.04 51.4704 139.184 51.3892 139.372 51.3143C139.559 51.2393 139.772 51.2018 140.01 51.2018C140.586 51.2018 140.986 51.4329 141.212 51.8951C141.45 52.3822 141.687 52.9006 141.926 53.4501C142.176 53.9873 142.42 54.5368 142.658 55.0989C142.908 55.661 143.146 56.2169 143.371 56.7664C143.609 57.3162 143.835 57.8408 144.047 58.3401H144.123C144.398 57.6782 144.673 57.0288 144.949 56.3918C145.224 55.7421 145.493 55.1176 145.756 54.518C146.019 53.9185 146.269 53.3564 146.507 52.8318C146.745 52.3072 146.958 51.8266 147.146 51.3892C147.258 51.3269 147.402 51.2832 147.578 51.258C147.753 51.2205 147.916 51.2018 148.066 51.2018C148.654 51.2018 148.992 51.4018 149.08 51.8014C149.13 52.0263 149.186 52.4009 149.249 52.9255C149.312 53.4378 149.374 54.0309 149.437 54.7055C149.499 55.3801 149.556 56.1044 149.606 56.8789C149.668 57.6533 149.725 58.4028 149.775 59.1272C149.825 59.8392 149.868 60.5012 149.906 61.1131C149.944 61.7126 149.975 62.1874 150 62.5372C149.775 62.6868 149.512 62.7618 149.211 62.7618C149.024 62.7618 148.855 62.7182 148.704 62.6306C148.567 62.5307 148.485 62.3559 148.46 62.106C148.398 61.1942 148.341 60.2888 148.291 59.3893C148.241 58.4901 148.191 57.6345 148.141 56.8226C148.103 56.0107 148.066 55.2676 148.028 54.593C147.991 53.9062 147.959 53.3253 147.935 52.8505H147.859C147.722 53.2003 147.559 53.5939 147.371 54.0309C147.196 54.4683 146.983 54.9615 146.733 55.511C146.495 56.0608 146.226 56.6852 145.925 57.3847C145.625 58.0715 145.287 58.8398 144.911 59.6893Z" fill="black"/>
<path d="M129.191 62.6497C128.941 62.6497 128.74 62.5747 128.59 62.4247C128.44 62.2748 128.365 62.075 128.365 61.8252V52.0826C128.365 51.8327 128.44 51.633 128.59 51.483C128.74 51.333 128.941 51.2581 129.191 51.2581H135.425C135.463 51.3207 135.5 51.408 135.538 51.5205C135.576 51.6204 135.594 51.7329 135.594 51.8576C135.594 52.07 135.544 52.2387 135.444 52.3635C135.344 52.4886 135.2 52.5509 135.012 52.5509H129.886V56.1671H134.843C134.881 56.2295 134.918 56.3168 134.956 56.4293C134.994 56.5292 135.012 56.6416 135.012 56.7664C135.012 56.9788 134.962 57.1475 134.862 57.2722C134.762 57.3847 134.618 57.441 134.43 57.441H129.886V61.3755H135.519C135.557 61.4379 135.594 61.5191 135.632 61.6192C135.67 61.7191 135.688 61.8377 135.688 61.9751C135.688 62.1875 135.638 62.3562 135.538 62.481C135.438 62.5934 135.294 62.6497 135.106 62.6497H129.191Z" fill="black"/>
<path d="M122.536 52.5509V62.6122C122.473 62.6371 122.373 62.662 122.235 62.6872C122.11 62.7247 121.978 62.7431 121.841 62.7431C121.29 62.7431 121.015 62.5123 121.015 62.0501V52.5509H117.503C117.465 52.4885 117.428 52.4074 117.391 52.3075C117.353 52.1951 117.334 52.07 117.334 51.9326C117.334 51.7203 117.384 51.558 117.484 51.4455C117.585 51.3207 117.728 51.2581 117.916 51.2581H126.047C126.085 51.3207 126.122 51.408 126.16 51.5205C126.197 51.6204 126.216 51.7329 126.216 51.8576C126.216 52.07 126.166 52.2387 126.066 52.3635C125.966 52.4886 125.822 52.5509 125.634 52.5509H122.536Z" fill="black"/>
<path d="M112.155 61.6191C112.993 61.6191 113.626 61.4317 114.051 61.057C114.489 60.6698 114.709 60.1763 114.709 59.5767C114.709 59.0521 114.54 58.6274 114.202 58.3029C113.876 57.978 113.357 57.7094 112.643 57.4971L111.009 57.01C110.208 56.7727 109.576 56.423 109.113 55.9608C108.662 55.4986 108.437 54.8741 108.437 54.0871C108.437 53.6126 108.524 53.1879 108.7 52.8133C108.887 52.426 109.15 52.1012 109.488 51.8388C109.826 51.5766 110.227 51.3769 110.69 51.2395C111.166 51.0895 111.698 51.0145 112.286 51.0145C112.787 51.0145 113.25 51.0582 113.676 51.1458C114.114 51.2207 114.489 51.3329 114.803 51.4829C115.128 51.6202 115.378 51.7764 115.554 51.9512C115.729 52.1261 115.817 52.3074 115.817 52.4946C115.817 52.6694 115.773 52.8194 115.685 52.9442C115.597 53.0693 115.485 53.1691 115.347 53.2441C115.022 52.9943 114.596 52.7758 114.07 52.5883C113.557 52.4008 112.981 52.3074 112.343 52.3074C111.604 52.3074 111.022 52.4635 110.596 52.7758C110.183 53.088 109.976 53.525 109.976 54.0871C109.976 54.5244 110.127 54.8803 110.427 55.155C110.728 55.4301 111.229 55.6673 111.93 55.8671L113.075 56.2045C114.064 56.4915 114.84 56.8975 115.403 57.4221C115.979 57.9344 116.267 58.6526 116.267 59.5767C116.267 60.5635 115.91 61.3628 115.197 61.975C114.483 62.5872 113.469 62.8929 112.155 62.8929C111.579 62.8929 111.053 62.8432 110.577 62.7433C110.114 62.6431 109.714 62.5122 109.376 62.3496C109.05 62.1873 108.793 62.0125 108.606 61.825C108.431 61.6253 108.343 61.4317 108.343 61.2442C108.343 61.0318 108.406 60.857 108.531 60.7196C108.668 60.5699 108.825 60.4636 109 60.4012C109.138 60.5386 109.307 60.6821 109.507 60.8321C109.707 60.9694 109.939 61.1007 110.202 61.2254C110.465 61.3379 110.759 61.4317 111.084 61.5066C111.41 61.5816 111.767 61.6191 112.155 61.6191Z" fill="black"/>
<path d="M106.826 51.7826C106.826 51.9199 106.732 52.1885 106.544 52.5884C106.356 52.9756 106.093 53.4627 105.755 54.0497C105.417 54.6366 105.01 55.305 104.535 56.0543C104.072 56.8038 103.558 57.597 102.995 58.4338V62.6118C102.932 62.637 102.832 62.6619 102.695 62.6868C102.569 62.7243 102.438 62.743 102.3 62.743C101.749 62.743 101.474 62.5119 101.474 62.0497V58.4338C101.123 57.9219 100.76 57.3785 100.385 56.8038C100.022 56.2291 99.6588 55.6483 99.2957 55.0613C98.9326 54.4744 98.5885 53.8997 98.263 53.3376C97.9374 52.7755 97.6494 52.2448 97.399 51.7451C97.4492 51.6077 97.5431 51.4765 97.6808 51.3517C97.8185 51.2143 97.9999 51.1455 98.2254 51.1455C98.4632 51.1455 98.6446 51.2079 98.7699 51.333C98.9076 51.4577 99.0453 51.6452 99.183 51.8951C99.3832 52.2448 99.6148 52.6569 99.8778 53.1317C100.153 53.6062 100.429 54.0871 100.704 54.5742C100.992 55.0613 101.267 55.5361 101.53 55.998C101.793 56.448 102.018 56.8226 102.206 57.1222H102.281C102.932 56.0355 103.508 55.0239 104.009 54.0871C104.522 53.1504 105.029 52.2134 105.53 51.2767C105.605 51.2266 105.693 51.1956 105.793 51.183C105.906 51.1581 106.012 51.1455 106.112 51.1455C106.588 51.1455 106.826 51.3579 106.826 51.7826Z" fill="black"/>
<path d="M92.3683 61.6191C93.207 61.6191 93.8394 61.4317 94.265 61.057C94.703 60.6698 94.922 60.1763 94.922 59.5767C94.922 59.0521 94.7532 58.6274 94.415 58.3029C94.0898 57.978 93.5702 57.7094 92.8565 57.4971L91.2228 57.01C90.4217 56.7727 89.7894 56.423 89.3264 55.9608C88.8755 55.4986 88.6503 54.8741 88.6503 54.0871C88.6503 53.6126 88.7378 53.1879 88.9131 52.8133C89.101 52.426 89.364 52.1012 89.7019 51.8388C90.0398 51.5766 90.4405 51.3769 90.9037 51.2395C91.3793 51.0895 91.9115 51.0145 92.4998 51.0145C93.0007 51.0145 93.4636 51.0582 93.8892 51.1458C94.3275 51.2207 94.703 51.3329 95.0159 51.4829C95.3415 51.6202 95.5919 51.7764 95.7672 51.9512C95.9424 52.1261 96.0299 52.3074 96.0299 52.4946C96.0299 52.6694 95.9862 52.8194 95.8987 52.9442C95.8109 53.0693 95.6982 53.1691 95.5605 53.2441C95.2352 52.9943 94.8096 52.7758 94.2838 52.5883C93.7704 52.4008 93.1947 52.3074 92.5562 52.3074C91.8176 52.3074 91.2355 52.4635 90.8098 52.7758C90.3967 53.088 90.1901 53.525 90.1901 54.0871C90.1901 54.5244 90.3404 54.8803 90.6407 55.155C90.9413 55.4301 91.4418 55.6673 92.1431 55.8671L93.2883 56.2045C94.2773 56.4915 95.0535 56.8975 95.6169 57.4221C96.1928 57.9344 96.4808 58.6526 96.4808 59.5767C96.4808 60.5635 96.1238 61.3628 95.4105 61.975C94.6968 62.5872 93.6829 62.8929 92.3683 62.8929C91.7923 62.8929 91.2666 62.8432 90.791 62.7433C90.3278 62.6431 89.9273 62.5122 89.5891 62.3496C89.2636 62.1873 89.007 62.0125 88.8194 61.825C88.6442 61.6253 88.5564 61.4317 88.5564 61.2442C88.5564 61.0318 88.6189 60.857 88.7443 60.7196C88.882 60.5699 89.0384 60.4636 89.2137 60.4012C89.3514 60.5386 89.5205 60.6821 89.7207 60.8321C89.9209 60.9694 90.1525 61.1007 90.4155 61.2254C90.6783 61.3379 90.9724 61.4317 91.298 61.5066C91.6235 61.5816 91.9802 61.6191 92.3683 61.6191Z" fill="black"/>
<path d="M82.4935 61.3379C82.4935 61.5629 82.4245 61.75 82.2868 61.9C82.1618 62.05 81.9678 62.1935 81.7047 62.3309C81.3918 62.4808 80.96 62.6121 80.4092 62.7245C79.8582 62.8367 79.3013 62.8929 78.738 62.8929C77.8617 62.8929 77.0606 62.7743 76.3343 62.5371C75.6083 62.2998 74.9824 61.9375 74.4567 61.4504C73.9309 60.9633 73.524 60.3511 73.236 59.6142C72.948 58.8649 72.8042 57.9842 72.8042 56.9725C72.8042 55.9734 72.9542 55.0991 73.2548 54.3495C73.5551 53.6 73.962 52.9817 74.4754 52.4946C75.0012 51.9952 75.6083 51.6267 76.2967 51.3891C76.9854 51.1393 77.7175 51.0145 78.4937 51.0145C79.0195 51.0145 79.5015 51.0582 79.9398 51.1458C80.3904 51.233 80.7721 51.3517 81.0853 51.5016C81.3982 51.639 81.6422 51.7951 81.8174 51.97C81.9927 52.1448 82.0805 52.3197 82.0805 52.4946C82.0805 52.6694 82.0303 52.8194 81.9302 52.9442C81.8301 53.0693 81.7112 53.163 81.5735 53.2254C81.2353 53.0004 80.8349 52.7945 80.3717 52.607C79.9084 52.4073 79.3136 52.3074 78.5877 52.3074C77.9867 52.3074 77.4299 52.4073 76.9164 52.607C76.4033 52.8068 75.9588 53.1006 75.5834 53.4875C75.2076 53.8747 74.9134 54.3621 74.7006 54.9491C74.4878 55.5361 74.3815 56.2106 74.3815 56.9725C74.3815 57.7844 74.4878 58.4839 74.7006 59.0708C74.9261 59.6455 75.2328 60.12 75.6209 60.495C76.0213 60.8696 76.4846 61.1505 77.0104 61.3379C77.5488 61.5128 78.1309 61.6004 78.7568 61.6004C79.2074 61.6004 79.6331 61.5629 80.0335 61.4879C80.4342 61.4129 80.7471 61.3192 80.9726 61.2067V57.7595H78.1371C78.0995 57.6968 78.0619 57.6157 78.0243 57.5158C77.9867 57.4033 77.968 57.2847 77.968 57.1599C77.968 56.9476 78.0182 56.785 78.1183 56.6728C78.2184 56.5478 78.3625 56.4854 78.5501 56.4854H81.6859C81.9114 56.4854 82.0993 56.5604 82.2493 56.7103C82.4122 56.8477 82.4935 57.0349 82.4935 57.2724V61.3379Z" fill="black"/>
<path d="M61.8911 62.743C61.3404 62.743 61.0651 62.5181 61.0651 62.0685V51.4829C61.2902 51.258 61.6284 51.1455 62.079 51.1455C62.3793 51.1455 62.6362 51.2079 62.849 51.333C63.0616 51.4454 63.2556 51.6578 63.4309 51.97L67.0176 57.9655C67.1679 58.2276 67.3244 58.5088 67.487 58.8085C67.6497 59.0958 67.8064 59.3893 67.9564 59.6892C68.1068 59.9763 68.2444 60.2513 68.3695 60.5135C68.5075 60.7633 68.6199 60.9757 68.7077 61.1505L68.7828 61.1318C68.6827 60.1201 68.6199 59.1019 68.5949 58.078C68.5823 57.0537 68.5762 56.0543 68.5762 55.0801V51.2955C68.6513 51.2706 68.7514 51.2454 68.8768 51.2205C69.0018 51.183 69.1395 51.1643 69.2898 51.1643C69.8405 51.1643 70.1159 51.3892 70.1159 51.8388V62.4434C70.0032 62.5433 69.8593 62.6183 69.6841 62.6681C69.5088 62.7304 69.3148 62.7618 69.1019 62.7618C68.8016 62.7618 68.5447 62.7055 68.3322 62.5931C68.1194 62.4683 67.9253 62.2498 67.7501 61.9376L64.1821 55.9418C64.0318 55.6923 63.8692 55.4172 63.6939 55.1176C63.5313 54.8179 63.3683 54.5242 63.2057 54.2371C63.0554 53.9498 62.9116 53.675 62.7739 53.4126C62.6485 53.1504 62.5423 52.9316 62.4545 52.7568L62.3793 52.7755C62.4422 53.3751 62.4921 54.0623 62.5296 54.8367C62.5672 55.5985 62.586 56.3229 62.586 57.01V62.6118C62.5235 62.637 62.4234 62.6619 62.2857 62.6868C62.1603 62.7243 62.0288 62.743 61.8911 62.743Z" fill="black"/>
<path d="M57.6903 62.6119C57.6277 62.6371 57.5338 62.662 57.4087 62.6869C57.2834 62.7243 57.1457 62.7431 56.9954 62.7431C56.4447 62.7431 56.1693 62.512 56.1693 62.0498V51.2955C56.2318 51.2706 56.3258 51.2454 56.4508 51.2205C56.5888 51.1831 56.7327 51.1643 56.883 51.1643C57.4211 51.1643 57.6903 51.3954 57.6903 51.8576V62.6119Z" fill="black"/>
<path d="M44.5802 62.743C44.0295 62.743 43.7542 62.5181 43.7542 62.0685V51.4829C43.9796 51.258 44.3175 51.1455 44.7681 51.1455C45.0687 51.1455 45.3253 51.2079 45.5381 51.333C45.751 51.4454 45.945 51.6578 46.1203 51.97L49.7067 57.9655C49.857 58.2276 50.0135 58.5088 50.1761 58.8085C50.3391 59.0958 50.4955 59.3893 50.6455 59.6892C50.7958 59.9763 50.9335 60.2513 51.0589 60.5135C51.1966 60.7633 51.3093 60.9757 51.3968 61.1505L51.4719 61.1318C51.3718 60.1201 51.3093 59.1019 51.284 58.078C51.2717 57.0537 51.2652 56.0543 51.2652 55.0801V51.2955C51.3404 51.2706 51.4405 51.2454 51.5659 51.2205C51.6909 51.183 51.8286 51.1643 51.9789 51.1643C52.5296 51.1643 52.805 51.3892 52.805 51.8388V62.4434C52.6926 62.5433 52.5484 62.6183 52.3731 62.6681C52.1979 62.7304 52.0038 62.7618 51.791 62.7618C51.4907 62.7618 51.2341 62.7055 51.0213 62.5931C50.8085 62.4683 50.6144 62.2498 50.4392 61.9376L46.8712 55.9418C46.7212 55.6923 46.5583 55.4172 46.383 55.1176C46.2204 54.8179 46.0574 54.5242 45.8948 54.2371C45.7445 53.9498 45.6007 53.675 45.463 53.4126C45.3376 53.1504 45.2314 52.9316 45.1436 52.7568L45.0687 52.7755C45.1313 53.3751 45.1812 54.0623 45.2187 54.8367C45.2563 55.5985 45.2751 56.3229 45.2751 57.01V62.6118C45.2126 62.637 45.1125 62.6619 44.9748 62.6868C44.8494 62.7243 44.7182 62.743 44.5802 62.743Z" fill="black"/>
<path d="M32.1841 62.743C31.633 62.743 31.3577 62.5181 31.3577 62.0685V51.4829C31.5831 51.258 31.921 51.1455 32.3716 51.1455C32.6722 51.1455 32.9288 51.2079 33.1416 51.333C33.3545 51.4454 33.5485 51.6578 33.7238 51.97L37.3102 57.9655C37.4605 58.2276 37.617 58.5088 37.7796 58.8085C37.9426 59.0958 38.099 59.3893 38.249 59.6892C38.3993 59.9763 38.537 60.2513 38.6624 60.5135C38.8001 60.7633 38.9128 60.9757 39.0003 61.1505L39.0754 61.1318C38.9753 60.1201 38.9128 59.1019 38.8875 58.078C38.8752 57.0537 38.8688 56.0543 38.8688 55.0801V51.2955C38.9439 51.2706 39.044 51.2454 39.1694 51.2205C39.2944 51.183 39.4321 51.1643 39.5824 51.1643C40.1331 51.1643 40.4088 51.3892 40.4088 51.8388V62.4434C40.2961 62.5433 40.1519 62.6183 39.9767 62.6681C39.8014 62.7304 39.6074 62.7618 39.3945 62.7618C39.0942 62.7618 38.8376 62.7055 38.6248 62.5931C38.412 62.4683 38.2179 62.2498 38.0427 61.9376L34.4747 55.9418C34.3247 55.6923 34.1618 55.4172 33.9865 55.1176C33.8239 54.8179 33.6613 54.5242 33.4983 54.2371C33.348 53.9498 33.2042 53.675 33.0665 53.4126C32.9411 53.1504 32.8349 52.9316 32.7474 52.7568L32.6722 52.7755C32.7348 53.3751 32.7847 54.0623 32.8222 54.8367C32.8598 55.5985 32.8786 56.3229 32.8786 57.01V62.6118C32.8161 62.637 32.716 62.6619 32.5783 62.6868C32.4529 62.7243 32.3217 62.743 32.1841 62.743Z" fill="black"/>
<path d="M26.6106 59.6143H21.5781C21.4905 59.8641 21.3966 60.1389 21.2965 60.4385C21.1963 60.7259 21.0962 61.0132 20.996 61.3005C20.9084 61.5753 20.8208 61.8374 20.7332 62.0873C20.6455 62.3248 20.5767 62.5246 20.5266 62.6869C20.3513 62.7618 20.1448 62.7993 19.9069 62.7993C19.7066 62.7993 19.5251 62.7492 19.3624 62.6494C19.2121 62.5372 19.137 62.362 19.137 62.1248C19.137 62.0123 19.1558 61.9001 19.1934 61.7876C19.2309 61.6626 19.2747 61.5316 19.3248 61.3943C19.5126 60.8697 19.7504 60.1951 20.0383 59.3706C20.3388 58.5464 20.658 57.6721 20.996 56.7476C21.3465 55.8109 21.6971 54.8742 22.0476 53.9372C22.4106 52.9879 22.7424 52.1388 23.0428 51.3893C23.143 51.3392 23.2932 51.2894 23.4935 51.2393C23.6938 51.1895 23.9003 51.1643 24.1132 51.1643C24.3636 51.1643 24.6014 51.2018 24.8267 51.2768C25.0646 51.3518 25.2148 51.4765 25.2774 51.6514C25.5778 52.3761 25.8971 53.2067 26.2351 54.1434C26.5856 55.0675 26.9361 56.0168 27.2866 56.9913C27.6372 57.9655 27.9689 58.9271 28.2819 59.8764C28.6073 60.8134 28.8953 61.6626 29.1457 62.4247C29.0455 62.5372 28.9266 62.6245 28.7889 62.6869C28.6512 62.7618 28.4947 62.7993 28.3194 62.7993C28.0816 62.7993 27.9 62.7492 27.7749 62.6494C27.6497 62.5372 27.5433 62.3559 27.4556 62.106L26.6106 59.6143ZM24.0944 52.4384C23.9567 52.8131 23.8002 53.2442 23.6249 53.7313C23.4497 54.2058 23.2682 54.7055 23.0804 55.2301C22.8926 55.7547 22.7048 56.2854 22.517 56.8226C22.3293 57.3598 22.154 57.8718 21.9913 58.3589H26.2163C26.0285 57.7968 25.8345 57.2347 25.6342 56.6727C25.4339 56.0983 25.2398 55.5485 25.0521 55.0239C24.8768 54.4993 24.7078 54.0184 24.5451 53.5814C24.3948 53.1318 24.2696 52.7507 24.1695 52.4384H24.0944Z" fill="black"/>
<path d="M11.4806 62.6494C11.2427 62.6494 11.0424 62.5744 10.8797 62.4247C10.7295 62.2747 10.6544 62.075 10.6544 61.8251V51.2955C10.7169 51.2706 10.8109 51.2454 10.936 51.2205C11.0737 51.1831 11.2177 51.1643 11.3679 51.1643C11.9188 51.1643 12.1942 51.3954 12.1942 51.8576V61.338H17.5834C17.7211 61.4754 17.79 61.6813 17.79 61.9564C17.79 62.1687 17.7336 62.3371 17.621 62.4622C17.5083 62.587 17.3581 62.6494 17.1703 62.6494H11.4806Z" fill="black"/>
<path d="M1.53979 58.5836V62.6119C1.46468 62.6368 1.36453 62.662 1.23934 62.6869C1.11416 62.7244 0.976454 62.7431 0.826229 62.7431C0.27541 62.7431 0 62.512 0 62.0498V52.0823C0 51.8826 0.0500744 51.7326 0.150224 51.6327C0.250373 51.5202 0.406854 51.433 0.619672 51.3706C0.982712 51.2581 1.42086 51.177 1.93413 51.1269C2.45991 51.0768 2.96692 51.0519 3.45514 51.0519C5.04502 51.0519 6.20298 51.389 6.92908 52.0636C7.66765 52.7255 8.03695 53.625 8.03695 54.7615C8.03695 55.9232 7.6614 56.8537 6.91029 57.5532C6.15918 58.2403 5.00119 58.5836 3.43636 58.5836H1.53979ZM3.34247 57.3098C4.34396 57.3098 5.12011 57.1036 5.67095 56.6915C6.22177 56.2793 6.49716 55.6423 6.49716 54.7803C6.49716 53.9308 6.22802 53.3128 5.68971 52.9256C5.16394 52.5258 4.40655 52.326 3.4176 52.326C3.07958 52.326 2.74158 52.3448 2.40358 52.3823C2.07809 52.4071 1.7839 52.4446 1.52101 52.4944V57.3098H3.34247Z" fill="black"/>
<path d="M140.452 0H9.54825C4.2749 0 0 4.26531 0 9.52683V35.0341C0 40.2957 4.2749 44.561 9.54825 44.561H140.452C145.725 44.561 150 40.2957 150 35.0341V9.52683C150 4.26531 145.725 0 140.452 0Z" fill="#0A2885"/>
<path d="M130.424 24.3029C129.476 23.9805 128.614 23.658 127.838 23.3356C127.062 22.9916 126.395 22.5832 125.834 22.1103C125.274 21.6373 124.833 21.0784 124.509 20.4335C124.208 19.7671 124.057 18.961 124.057 18.0152C124.057 16.1879 124.757 14.7262 126.158 13.6298C127.579 12.5335 129.562 11.9854 132.104 11.9854C133.03 11.9854 133.892 12.0498 134.689 12.1788C135.487 12.3078 136.165 12.512 136.725 12.7915C137.307 13.0494 137.759 13.3934 138.083 13.8233C138.406 14.2317 138.567 14.7154 138.567 15.2743C138.567 15.8332 138.438 16.3169 138.18 16.7253C137.921 17.1123 137.609 17.4455 137.242 17.725C136.769 17.424 136.133 17.166 135.336 16.9511C134.539 16.7146 133.666 16.5964 132.718 16.5964C131.748 16.5964 131.037 16.7361 130.585 17.0155C130.133 17.2735 129.906 17.6067 129.906 18.0152C129.906 18.3376 130.046 18.6063 130.327 18.8213C130.607 19.0147 131.027 19.1975 131.587 19.3694L133.3 19.9176C135.325 20.5625 136.876 21.3901 137.953 22.4005C139.052 23.3893 139.602 24.7436 139.602 26.4633C139.602 28.2905 138.88 29.7738 137.436 30.913C135.993 32.031 133.871 32.5897 131.07 32.5897C130.079 32.5897 129.152 32.504 128.291 32.3319C127.45 32.1813 126.707 31.9557 126.061 31.6549C125.436 31.3322 124.94 30.9453 124.574 30.4939C124.229 30.021 124.057 29.4836 124.057 28.8817C124.057 28.2583 124.24 27.7316 124.606 27.3017C124.972 26.8502 125.371 26.5063 125.802 26.2698C126.405 26.7428 127.138 27.1512 128 27.4952C128.883 27.8391 129.842 28.0111 130.876 28.0111C131.932 28.0111 132.675 27.8499 133.106 27.5274C133.537 27.205 133.752 26.8288 133.752 26.3988C133.752 25.9689 133.58 25.6465 133.235 25.4315C132.89 25.195 132.406 24.9693 131.781 24.7543L130.424 24.3029Z" fill="white"/>
<path d="M107.002 15.5323C107.002 14.608 107.271 13.8771 107.81 13.3397C108.348 12.8023 109.081 12.5336 110.007 12.5336H120.672C120.823 12.77 120.952 13.0817 121.06 13.4687C121.189 13.8556 121.254 14.264 121.254 14.694C121.254 15.5109 121.071 16.0913 120.704 16.4352C120.36 16.7792 119.897 16.9511 119.315 16.9511H112.496V19.9499H119.767C119.918 20.1863 120.047 20.4981 120.155 20.885C120.284 21.2504 120.349 21.6481 120.349 22.0781C120.349 22.8949 120.177 23.4754 119.832 23.8193C119.487 24.1632 119.024 24.3352 118.442 24.3352H112.496V27.7209H120.801C120.952 27.9574 121.081 28.2691 121.189 28.656C121.319 29.043 121.383 29.4514 121.383 29.8813C121.383 30.6982 121.2 31.2892 120.834 31.6549C120.489 31.9988 120.026 32.1706 119.444 32.1706H110.007C109.081 32.1706 108.348 31.902 107.81 31.3645C107.271 30.8273 107.002 30.0963 107.002 29.1719V15.5323Z" fill="white"/>
<path d="M93.4383 32.1706C92.5122 32.1706 91.7794 31.902 91.241 31.3645C90.7023 30.827 90.4331 30.0962 90.4331 29.1719V12.5013C90.67 12.4583 91.047 12.4045 91.5641 12.34C92.0813 12.2541 92.5765 12.2111 93.0506 12.2111C93.5461 12.2111 93.9771 12.2541 94.3433 12.34C94.7311 12.4045 95.0545 12.5335 95.3129 12.727C95.5713 12.9204 95.7654 13.1892 95.8947 13.5331C96.0238 13.8771 96.0885 14.3285 96.0885 14.8874V27.6241H103.489C103.64 27.8606 103.78 28.183 103.909 28.5915C104.038 28.9784 104.103 29.3869 104.103 29.8168C104.103 30.6766 103.92 31.2892 103.554 31.6549C103.188 31.9988 102.703 32.1706 102.1 32.1706H93.4383Z" fill="white"/>
<path d="M74.3402 13.1139C74.7068 12.899 75.256 12.6947 75.9884 12.5013C76.7427 12.3078 77.4967 12.2111 78.2507 12.2111C79.3281 12.2111 80.2759 12.3723 81.0946 12.6947C81.9351 12.9957 82.4735 13.4794 82.7107 14.1457C83.0985 15.2636 83.5186 16.5641 83.9711 18.0474C84.4235 19.5306 84.876 21.0677 85.3284 22.6584C85.7806 24.2276 86.2223 25.7862 86.6532 27.3339C87.0841 28.8602 87.4611 30.2145 87.7845 31.3967C87.5258 31.6976 87.138 31.9342 86.6208 32.106C86.104 32.2996 85.4898 32.3964 84.779 32.3964C84.2618 32.3964 83.8201 32.3534 83.4539 32.2674C83.1092 32.1813 82.8182 32.0526 82.5813 31.8805C82.3657 31.7084 82.1828 31.4828 82.0318 31.2034C81.9028 30.9238 81.7842 30.6014 81.6764 30.236L81.0946 28.0111H75.2452C75.073 28.656 74.9005 29.3223 74.728 30.0102C74.5559 30.6981 74.3834 31.3645 74.2112 32.0095C73.9093 32.1168 73.5862 32.2028 73.2416 32.2674C72.9185 32.3534 72.5199 32.3964 72.0459 32.3964C70.9469 32.3964 70.1282 32.2136 69.5898 31.8482C69.0727 31.4613 68.814 30.9345 68.814 30.2682C68.814 29.9673 68.8571 29.6663 68.9433 29.3653C69.0296 29.0644 69.1266 28.7097 69.2341 28.3013C69.385 27.7209 69.5898 27.0007 69.8483 26.1408C70.1282 25.281 70.4301 24.3566 70.7532 23.3678C71.0763 22.3574 71.4209 21.3256 71.7872 20.2723C72.1537 19.2189 72.4984 18.2301 72.8215 17.3058C73.1446 16.3599 73.4356 15.5215 73.694 14.7906C73.974 14.0598 74.1896 13.5008 74.3402 13.1139ZM78.2184 17.2735C77.9168 18.1764 77.5722 19.1867 77.1844 20.3045C76.8182 21.4009 76.484 22.5187 76.1824 23.658H80.1899C79.8881 22.4972 79.5758 21.3686 79.2527 20.2723C78.9511 19.1545 78.6708 18.1549 78.4124 17.2735H78.2184Z" fill="white"/>
<path d="M57.8039 24.3029C56.8559 23.9805 55.9941 23.658 55.2185 23.3356C54.4429 22.9916 53.7752 22.5832 53.2149 22.1103C52.6546 21.6373 52.2129 21.0784 51.8898 20.4335C51.5883 19.7671 51.4374 18.961 51.4374 18.0152C51.4374 16.1879 52.1375 14.7262 53.538 13.6298C54.9601 12.5335 56.9421 11.9854 59.4844 11.9854C60.4109 11.9854 61.2727 12.0498 62.0698 12.1788C62.8669 12.3078 63.5458 12.512 64.1058 12.7915C64.6876 13.0494 65.14 13.3934 65.4631 13.8233C65.7862 14.2317 65.9479 14.7154 65.9479 15.2743C65.9479 15.8332 65.8186 16.3169 65.5602 16.7253C65.3014 17.1123 64.9891 17.4455 64.6229 17.725C64.1489 17.424 63.5135 17.166 62.7163 16.9511C61.9189 16.7146 61.0463 16.5964 60.0986 16.5964C59.129 16.5964 58.4181 16.7361 57.9656 17.0155C57.5131 17.2735 57.2868 17.6067 57.2868 18.0152C57.2868 18.3376 57.4269 18.6063 57.7069 18.8213C57.9872 19.0147 58.4073 19.1975 58.9673 19.3694L60.6801 19.9176C62.7055 20.5625 64.2567 21.3901 65.3338 22.4005C66.4328 23.3893 66.9819 24.7436 66.9819 26.4633C66.9819 28.2905 66.2603 29.7738 64.8169 30.913C63.3733 32.031 61.2511 32.5897 58.4504 32.5897C57.4592 32.5897 56.5328 32.504 55.6709 32.3319C54.8307 32.1813 54.0875 31.9557 53.441 31.6549C52.8163 31.3322 52.3207 30.9453 51.9545 30.4939C51.6099 30.021 51.4374 29.4836 51.4374 28.8817C51.4374 28.2583 51.6206 27.7316 51.9869 27.3017C52.3531 26.8502 52.7516 26.5063 53.1826 26.2698C53.7859 26.7428 54.5184 27.1512 55.3802 27.4952C56.2636 27.8391 57.2221 28.0111 58.2564 28.0111C59.3122 28.0111 60.0554 27.8499 60.4863 27.5274C60.9173 27.205 61.1326 26.8288 61.1326 26.3988C61.1326 25.9689 60.9604 25.6465 60.6154 25.4315C60.2707 25.195 59.7859 24.9693 59.1613 24.7543L57.8039 24.3029Z" fill="white"/>
<path d="M32.7302 11.9854H41.0975C41.704 11.9854 42.1971 12.4802 42.1971 13.0926V21.4847C42.1962 21.7033 42.1309 21.9168 42.0092 22.0982C41.8879 22.2796 41.7154 22.4208 41.514 22.5041C41.3125 22.5874 41.0911 22.609 40.8773 22.5662C40.6639 22.5233 40.4677 22.418 40.3133 22.2634L37.5647 19.5053L29.4801 27.6175C29.2923 27.8063 29.0693 27.9562 28.8237 28.0584C28.5782 28.1606 28.315 28.2133 28.0491 28.2133C27.7833 28.2133 27.52 28.1606 27.2745 28.0584C27.0289 27.9562 26.8059 27.8063 26.6181 27.6175L21.9857 22.9651L13.3109 31.6736C12.9314 32.0544 12.4167 32.2683 11.88 32.2683C11.3432 32.2683 10.8285 32.0544 10.449 31.6736C10.0695 31.2929 9.85626 30.7763 9.85626 30.2377C9.85626 29.6991 10.0695 29.1826 10.449 28.8018L20.5547 18.6617C20.7424 18.4728 20.9655 18.3229 21.211 18.2207C21.4566 18.1184 21.7198 18.0658 21.9857 18.0658C22.2515 18.0658 22.5148 18.1184 22.7603 18.2207C23.0059 18.3229 23.2289 18.4728 23.4167 18.6617L28.0491 23.3139L34.7027 16.6336L31.954 13.8755C31.8 13.7209 31.695 13.524 31.6522 13.3096C31.6096 13.0952 31.6312 12.8729 31.7141 12.6708C31.7972 12.4687 31.938 12.2957 32.1188 12.1738C32.2996 12.0518 32.5121 11.9862 32.7302 11.9854Z" fill="white"/>
</g>
<defs>
<clipPath id="clip0_505_7174">
<rect width="150" height="63" fill="white"/>
</clipPath>
</defs>
</svg>
