<svg width="63" height="60" viewBox="0 0 63 60" fill="none" xmlns="http://www.w3.org/2000/svg">
<rect width="63" height="60" rx="8" fill="#0A2885"/>
<path d="M37.7566 8H44.6178C45.1151 8 45.5195 8.40844 45.5195 8.91396V15.8407C45.5187 16.0212 45.4652 16.1974 45.3654 16.3471C45.2659 16.4968 45.1245 16.6134 44.9593 16.6821C44.7941 16.7509 44.6125 16.7687 44.4373 16.7334C44.2622 16.698 44.1013 16.6111 43.9748 16.4835L41.7209 14.2069L35.0915 20.9027C34.9376 21.0586 34.7547 21.1823 34.5533 21.2666C34.352 21.351 34.1361 21.3945 33.9181 21.3945C33.7001 21.3945 33.4843 21.351 33.2829 21.2666C33.0816 21.1823 32.8987 21.0586 32.7447 20.9027L28.9461 17.0627L21.8328 24.2506C21.5216 24.5649 21.0995 24.7415 20.6594 24.7415C20.2193 24.7415 19.7973 24.5649 19.486 24.2506C19.1748 23.9363 19 23.5099 19 23.0654C19 22.6209 19.1748 22.1946 19.486 21.8803L27.7727 13.5106C27.9267 13.3547 28.1096 13.231 28.3109 13.1466C28.5123 13.0622 28.7281 13.0188 28.9461 13.0188C29.1641 13.0188 29.38 13.0622 29.5813 13.1466C29.7827 13.231 29.9656 13.3547 30.1195 13.5106L33.9181 17.3506L39.374 11.8367L37.1201 9.5601C36.9939 9.43249 36.9077 9.26997 36.8726 9.09301C36.8378 8.91606 36.8555 8.73262 36.9234 8.56579C36.9916 8.39895 37.107 8.25619 37.2553 8.15552C37.4035 8.05482 37.5778 8.00071 37.7566 8Z" fill="white"/>
<path d="M22.792 41.144C22.3227 40.984 21.896 40.824 21.512 40.664C21.128 40.4933 20.7973 40.2907 20.52 40.056C20.2427 39.8213 20.024 39.544 19.864 39.224C19.7147 38.8933 19.64 38.4933 19.64 38.024C19.64 37.1173 19.9867 36.392 20.68 35.848C21.384 35.304 22.3653 35.032 23.624 35.032C24.0827 35.032 24.5093 35.064 24.904 35.128C25.2987 35.192 25.6347 35.2933 25.912 35.432C26.2 35.56 26.424 35.7307 26.584 35.944C26.744 36.1467 26.824 36.3867 26.824 36.664C26.824 36.9413 26.76 37.1813 26.632 37.384C26.504 37.576 26.3493 37.7413 26.168 37.88C25.9333 37.7307 25.6187 37.6027 25.224 37.496C24.8293 37.3787 24.3973 37.32 23.928 37.32C23.448 37.32 23.096 37.3893 22.872 37.528C22.648 37.656 22.536 37.8213 22.536 38.024C22.536 38.184 22.6053 38.3173 22.744 38.424C22.8827 38.52 23.0907 38.6107 23.368 38.696L24.216 38.968C25.2187 39.288 25.9867 39.6987 26.52 40.2C27.064 40.6907 27.336 41.3627 27.336 42.216C27.336 43.1227 26.9787 43.8587 26.264 44.424C25.5493 44.9787 24.4987 45.256 23.112 45.256C22.6213 45.256 22.1627 45.2133 21.736 45.128C21.32 45.0533 20.952 44.9413 20.632 44.792C20.3227 44.632 20.0773 44.44 19.896 44.216C19.7253 43.9813 19.64 43.7147 19.64 43.416C19.64 43.1067 19.7307 42.8453 19.912 42.632C20.0933 42.408 20.2907 42.2373 20.504 42.12C20.8027 42.3547 21.1653 42.5573 21.592 42.728C22.0293 42.8987 22.504 42.984 23.016 42.984C23.5387 42.984 23.9067 42.904 24.12 42.744C24.3333 42.584 24.44 42.3973 24.44 42.184C24.44 41.9707 24.3547 41.8107 24.184 41.704C24.0133 41.5867 23.7733 41.4747 23.464 41.368L22.792 41.144ZM32.0045 39.8C32.4525 39.8 32.7938 39.6987 33.0285 39.496C33.2738 39.2827 33.3965 38.9627 33.3965 38.536C33.3965 38.1307 33.2685 37.8213 33.0125 37.608C32.7672 37.384 32.4045 37.272 31.9245 37.272C31.7538 37.272 31.6098 37.2773 31.4925 37.288C31.3858 37.288 31.2738 37.2987 31.1565 37.32V39.8H32.0045ZM31.1725 44.936C31.0552 44.968 30.8685 45 30.6125 45.032C30.3672 45.064 30.1218 45.08 29.8765 45.08C29.6312 45.08 29.4125 45.0587 29.2205 45.016C29.0392 44.984 28.8845 44.92 28.7565 44.824C28.6285 44.728 28.5325 44.5947 28.4685 44.424C28.4045 44.2533 28.3725 44.0293 28.3725 43.752V36.216C28.3725 35.992 28.4312 35.8213 28.5485 35.704C28.6765 35.576 28.8472 35.4747 29.0605 35.4C29.4232 35.272 29.8338 35.1813 30.2925 35.128C30.7618 35.064 31.2312 35.032 31.7005 35.032C33.1725 35.032 34.2978 35.3467 35.0765 35.976C35.8552 36.6053 36.2445 37.4587 36.2445 38.536C36.2445 39.0587 36.1592 39.5333 35.9885 39.96C35.8285 40.376 35.5832 40.7387 35.2525 41.048C34.9325 41.3467 34.5218 41.5813 34.0205 41.752C33.5298 41.912 32.9592 41.992 32.3085 41.992H31.1725V44.936ZM39.8633 41.144C39.3939 40.984 38.9673 40.824 38.5833 40.664C38.1993 40.4933 37.8686 40.2907 37.5913 40.056C37.3139 39.8213 37.0953 39.544 36.9353 39.224C36.7859 38.8933 36.7113 38.4933 36.7113 38.024C36.7113 37.1173 37.0579 36.392 37.7513 35.848C38.4553 35.304 39.4366 35.032 40.6953 35.032C41.1539 35.032 41.5806 35.064 41.9753 35.128C42.3699 35.192 42.7059 35.2933 42.9833 35.432C43.2713 35.56 43.4953 35.7307 43.6553 35.944C43.8153 36.1467 43.8953 36.3867 43.8953 36.664C43.8953 36.9413 43.8313 37.1813 43.7033 37.384C43.5753 37.576 43.4206 37.7413 43.2393 37.88C43.0046 37.7307 42.6899 37.6027 42.2953 37.496C41.9006 37.3787 41.4686 37.32 40.9993 37.32C40.5193 37.32 40.1673 37.3893 39.9433 37.528C39.7193 37.656 39.6073 37.8213 39.6073 38.024C39.6073 38.184 39.6766 38.3173 39.8153 38.424C39.9539 38.52 40.1619 38.6107 40.4393 38.696L41.2873 38.968C42.2899 39.288 43.0579 39.6987 43.5913 40.2C44.1353 40.6907 44.4073 41.3627 44.4073 42.216C44.4073 43.1227 44.0499 43.8587 43.3353 44.424C42.6206 44.9787 41.5699 45.256 40.1833 45.256C39.6926 45.256 39.2339 45.2133 38.8073 45.128C38.3913 45.0533 38.0233 44.9413 37.7033 44.792C37.3939 44.632 37.1486 44.44 36.9673 44.216C36.7966 43.9813 36.7113 43.7147 36.7113 43.416C36.7113 43.1067 36.8019 42.8453 36.9833 42.632C37.1646 42.408 37.3619 42.2373 37.5753 42.12C37.8739 42.3547 38.2366 42.5573 38.6633 42.728C39.1006 42.8987 39.5753 42.984 40.0873 42.984C40.6099 42.984 40.9779 42.904 41.1913 42.744C41.4046 42.584 41.5113 42.3973 41.5113 42.184C41.5113 41.9707 41.4259 41.8107 41.2553 41.704C41.0846 41.5867 40.8446 41.4747 40.5353 41.368L39.8633 41.144Z" fill="white"/>
</svg>
